<svg width="42" height="42" viewBox="0 0 42 42" fill="none" xmlns="http://www.w3.org/2000/svg">
<path fill-rule="evenodd" clip-rule="evenodd" d="M32.5313 6.41675H37.6668C39.9688 6.41675 41.8334 8.28341 41.8334 10.5834V27.2492C40.6221 26.3394 39.206 25.6875 37.6666 25.375V10.5833H32.5312C30.4438 10.5833 28.4952 9.54088 27.3305 7.80008L25.0204 4.33333H17.6132L14.4538 8.25253C13.2671 9.72655 11.4779 10.5833 9.58533 10.5833H4.33325V33.5H25.3751C25.2385 34.1731 25.1667 34.8699 25.1667 35.5833C25.1667 36.2968 25.2385 36.9936 25.3751 37.6667H4.33342C2.03341 37.6667 0.166748 35.8001 0.166748 33.5001V10.5834C0.166748 8.28341 2.03341 6.41675 4.33342 6.41675H9.5855C10.2167 6.41675 10.8126 6.13133 11.2084 5.63966L14.9938 0.943831C15.3876 0.452165 15.9855 0.166748 16.6147 0.166748H26.1355C26.8313 0.166748 27.4834 0.514665 27.8688 1.09383L30.798 5.48966C31.1855 6.06883 31.8355 6.41675 32.5313 6.41675ZM12.6667 21C12.6667 25.6024 16.3977 29.3333 21.0001 29.3333C25.6025 29.3333 29.3334 25.6024 29.3334 21C29.3334 16.3976 25.6025 12.6667 21.0001 12.6667C16.3977 12.6667 12.6667 16.3976 12.6667 21ZM20.9999 25.1667C23.3011 25.1667 25.1666 23.3012 25.1666 21C25.1666 18.6988 23.3011 16.8333 20.9999 16.8333C18.6987 16.8333 16.8333 18.6988 16.8333 21C16.8333 23.3012 18.6987 25.1667 20.9999 25.1667ZM33.5 30.3333C33.5 29.781 33.9477 29.3333 34.5 29.3333H36.6667C37.219 29.3333 37.6667 29.781 37.6667 30.3333V33.5H40.8333C41.3855 33.5 41.8333 33.9477 41.8333 34.5V36.6667C41.8333 37.219 41.3855 37.6667 40.8333 37.6667H37.6667V40.8333C37.6667 41.3856 37.219 41.8333 36.6667 41.8333H34.5C33.9477 41.8333 33.5 41.3856 33.5 40.8333V37.6667H30.3333C29.781 37.6667 29.3333 37.219 29.3333 36.6667V34.5C29.3333 33.9477 29.781 33.5 30.3333 33.5H33.5V30.3333Z" fill="#FF473A"/>
</svg>
