<svg width="249" height="215" viewBox="0 0 249 215" fill="none" xmlns="http://www.w3.org/2000/svg">
<g filter="url(#filter0_d)">
<path d="M184.436 163.641V176.79C184.436 182.05 188.571 186.182 193.646 186.182H208.87V163.64H184.436V163.641ZM39.7114 186.183H54.9359C60.0108 186.183 64.1455 182.05 64.1455 176.79V163.641H39.7114C39.7114 163.642 39.7114 186.183 39.7114 186.183Z" fill="#1E2E37"/>
<path d="M201.352 163.641V194.26C201.352 201.21 206.99 206.846 213.757 206.846H220.711C227.665 206.846 233.116 201.211 233.116 194.26V159.884L201.352 163.641ZM15.2773 194.26C15.2773 201.21 20.9158 206.846 27.6824 206.846H34.6366C41.5907 206.846 47.0416 201.211 47.0416 194.26V163.641L15.2773 159.884V194.26Z" fill="#324D5B"/>
<path d="M123.539 0.212646H124.103C187.82 0.212646 203.232 27.4508 203.232 79.1087H45.3499C45.3499 27.4508 60.9499 0.212646 123.539 0.212646Z" fill="#BF392B"/>
<path d="M123.727 9.60498H124.291C180.301 9.60498 193.834 33.6494 193.834 79.1088H54.7474C54.7474 33.6499 68.4682 9.60498 123.727 9.60498Z" fill="#85C6DC"/>
<path d="M124.291 142.978C162.634 142.978 193.834 150.116 193.834 158.945C193.834 167.774 162.634 174.912 124.291 174.912C85.9481 174.912 54.7479 167.774 54.7479 158.945C54.7474 150.115 85.9481 142.978 124.291 142.978Z" fill="#85281E"/>
<path d="M46.102 84.7446L124.479 73.4736L202.48 84.7446C225.786 84.7446 244.582 103.717 244.582 127.386V136.591C244.582 143.353 241.574 148.801 232.553 148.801H16.029C7.19504 148.613 4 143.165 4 136.403V127.199C4 103.717 22.7956 84.7446 46.102 84.7446Z" fill="#BF392B"/>
<path d="M13.5856 146.734H234.808C238.003 146.734 240.634 149.176 240.634 152.37C240.634 158.569 235.371 163.641 228.793 163.641H19.6001C13.0215 163.641 7.75916 158.569 7.75916 152.37C7.75916 149.176 10.3906 146.734 13.5856 146.734Z" fill="#E4E7E7"/>
<path d="M205.675 78.9213C205.675 78.9213 183.872 87.5624 172.407 125.696C172.407 125.696 166.016 146.735 151.356 146.735H97.2255C82.565 146.735 76.1745 125.696 76.1745 125.696C64.7091 87.5624 43.0945 79.2972 43.0945 79.2972C35.5762 76.2914 43.0945 71.7832 43.0945 71.7832C73.543 54.5011 124.291 56.5673 124.291 56.5673C124.291 56.5673 174.851 54.3131 205.675 71.7832C205.675 71.7832 212.629 75.7276 205.675 78.9213Z" fill="#E2574C"/>
<path d="M84.4444 123.066C85.384 126.072 90.2708 137.342 96.4734 137.342H113.013V65.9595C84.4439 65.9595 65.8368 71.2194 54.7474 76.1034C63.3934 82.6783 76.3625 96.3909 84.4444 123.066ZM135.568 65.9595V137.342H150.416C156.807 137.342 161.506 126.071 162.445 123.066C170.34 96.7672 183.12 82.8662 191.766 76.1034C181.053 71.2194 163.009 66.1474 135.568 65.9595Z" fill="#BF392B"/>
<path d="M120.532 56.5674H128.05V146.734H120.532V56.5674Z" fill="#E87970"/>
<path d="M37.8316 101.651C28.434 101.651 20.9158 109.165 20.9158 118.557C20.9158 127.949 28.434 135.463 37.8316 135.463C47.2292 135.463 54.7474 127.949 54.7474 118.557C54.7474 109.165 47.2296 101.651 37.8316 101.651ZM210.75 101.651C201.352 101.651 193.834 109.165 193.834 118.557C193.834 127.949 201.352 135.463 210.75 135.463C220.147 135.463 227.666 127.949 227.666 118.557C227.666 109.165 220.147 101.651 210.75 101.651Z" fill="#E0E3E4"/>
<path d="M37.8316 112.922C34.6365 112.922 32.1931 115.364 32.1931 118.557C32.1931 121.75 34.6365 124.192 37.8316 124.192C41.0266 124.192 43.47 121.75 43.47 118.557C43.47 115.364 40.839 112.922 37.8316 112.922ZM210.75 112.922C207.555 112.922 205.111 115.364 205.111 118.557C205.111 121.75 207.555 124.192 210.75 124.192C213.945 124.192 216.388 121.75 216.388 118.557C216.388 115.364 213.945 112.922 210.75 112.922Z" fill="#C0C8CB"/>
<path d="M207.554 75.3523H204.171C200.412 75.3523 197.405 78.1702 197.405 81.9272V85.1204C197.405 86.9987 201.164 88.3136 205.675 88.3136C210.374 88.3136 213.945 86.8107 213.945 85.1204V81.9272C214.321 78.3576 211.313 75.3523 207.554 75.3523ZM44.0341 75.3523H40.651C36.8919 75.3523 33.8849 78.1702 33.8849 81.9272V85.1204C33.8849 86.9987 37.644 88.3136 42.1548 88.3136C46.6655 88.3136 50.4246 86.8107 50.4246 85.1204V81.9272C50.8007 78.3576 47.7932 75.3523 44.0341 75.3523Z" fill="#F4B459"/>
<path d="M60.0103 41.7272C69.4078 37.031 96.6613 25.0088 123.915 25.0088C151.356 25.0088 178.986 37.031 188.383 41.7272C180.489 20.5001 162.07 9.60498 124.29 9.60498H123.726C86.5117 9.60498 68.0926 20.5006 60.0103 41.7272Z" fill="#92D2E8"/>
<path d="M210.75 105.408C218.08 105.408 223.907 111.231 223.907 118.557C223.907 125.883 218.08 131.706 210.75 131.706C203.42 131.706 197.593 125.883 197.593 118.557C197.593 111.232 203.42 105.408 210.75 105.408ZM37.8316 105.408C45.1618 105.408 50.9883 111.231 50.9883 118.557C50.9883 125.883 45.1618 131.706 37.8316 131.706C30.5014 131.706 24.6749 125.883 24.6749 118.557C24.6749 111.232 30.5014 105.408 37.8316 105.408ZM210.75 101.651C201.352 101.651 193.834 109.165 193.834 118.557C193.834 127.949 201.352 135.463 210.75 135.463C220.147 135.463 227.666 127.949 227.666 118.557C227.666 109.165 220.147 101.651 210.75 101.651ZM37.8316 101.651C28.434 101.651 20.9158 109.165 20.9158 118.557C20.9158 127.949 28.434 135.463 37.8316 135.463C47.2292 135.463 54.7474 127.949 54.7474 118.557C54.7474 109.165 47.2296 101.651 37.8316 101.651Z" fill="#CCD0D2"/>
</g>
<defs>
<filter id="filter0_d" x="0" y="0" width="249" height="215" filterUnits="userSpaceOnUse" color-interpolation-filters="sRGB">
<feFlood flood-opacity="0" result="BackgroundImageFix"/>
<feColorMatrix in="SourceAlpha" type="matrix" values="0 0 0 0 0 0 0 0 0 0 0 0 0 0 0 0 0 0 127 0"/>
<feOffset dy="4"/>
<feGaussianBlur stdDeviation="2"/>
<feColorMatrix type="matrix" values="0 0 0 0 0 0 0 0 0 0 0 0 0 0 0 0 0 0 0.25 0"/>
<feBlend mode="normal" in2="BackgroundImageFix" result="effect1_dropShadow"/>
<feBlend mode="normal" in="SourceGraphic" in2="effect1_dropShadow" result="shape"/>
</filter>
</defs>
</svg>
